<?xml version="1.0" encoding="utf-8"?>
<!-- Generator: Adobe Illustrator 19.0.0, SVG Export Plug-In . SVG Version: 6.00 Build 0)  -->
<svg version="1.1" id="Layer_1" xmlns="http://www.w3.org/2000/svg" xmlns:xlink="http://www.w3.org/1999/xlink" x="0px" y="0px"
	 viewBox="131 -131 512 512" style="enable-background:new 131 -131 512 512;" xml:space="preserve">
<g id="XMLID_1_">
	<path id="XMLID_25_" d="M587.8-94.7h-36.3v55.2c0,10.3-7.9,18.1-18.1,18.1H460c-10.3,0-18.1-7.9-18.1-18.1v-55.2H331.4v55.2
		c0,10.3-7.9,18.1-18.1,18.1h-73.4c-10.3,0-18.1-7.9-18.1-18.1v-55.2h-36.4c-20.5,0-36.3,16.6-36.3,36.3v403.1
		c0,20.5,16.6,36.3,36.3,36.3h403.1c20.5,0,36.3-16.6,36.3-36.3V-57.6C624.9-78.1,608.3-94.7,587.8-94.7z M587.8,345.5H185.4V15.7
		h403.1v329.8H587.8z M295.1-57.6h-36.3V-131h36.3V-57.6z M515.2-57.6h-36.3V-131h36.3V-57.6z M331.4,89.1h-36.3V52.8h36.3V89.1z
		 M404.8,89.1h-36.3V52.8h36.3V89.1z M478.1,89.1h-36.3V52.8h36.3V89.1z M551.5,89.1h-36.3V52.8h36.3V89.1z M258.8,161.7h-36.3
		v-36.3h36.3V161.7z M331.4,161.7h-36.3v-36.3h36.3V161.7z M404.8,161.7h-36.3v-36.3h36.3V161.7z M478.1,161.7h-36.3v-36.3h36.3
		V161.7z M551.5,161.7h-36.3v-36.3h36.3V161.7z M258.8,235.1h-36.3v-36.3h36.3V235.1z M331.4,235.1h-36.3v-36.3h36.3V235.1z
		 M404.8,235.1h-36.3v-36.3h36.3V235.1z M478.1,235.1h-36.3v-36.3h36.3V235.1z M551.5,235.1h-36.3v-36.3h36.3V235.1z M258.8,308.4
		h-36.3v-36.3h36.3V308.4z M331.4,308.4h-36.3v-36.3h36.3V308.4z M404.8,308.4h-36.3v-36.3h36.3V308.4z M478.1,308.4h-36.3v-36.3
		h36.3V308.4z"/>
</g>
</svg>
