<?xml version="1.0" encoding="utf-8"?>
<!-- Svg Vector Icons : http://www.onlinewebfonts.com/icon -->
<!DOCTYPE svg PUBLIC "-//W3C//DTD SVG 1.1//EN" "http://www.w3.org/Graphics/SVG/1.1/DTD/svg11.dtd">
<svg version="1.1" xmlns="http://www.w3.org/2000/svg" xmlns:xlink="http://www.w3.org/1999/xlink" x="0px" y="0px" viewBox="0 0 256 256" enable-background="new 0 0 256 256" xml:space="preserve">
<metadata> Svg Vector Icons : http://www.onlinewebfonts.com/icon </metadata>
<g><g><g><path fill="#000000" d="M114.8,14.8c-12.6,1.1-24.6,6.8-30.8,14.6c-4.1,5.2-6.9,11.1-8.3,17.8c-0.5,2.2-0.8,7.3-1,15.5L74.5,75l-1.4,0.6c-2.4,1.1-3.1,3.3-3.2,9.3c0,6.3,0.8,10,3.5,15.8c2.3,4.7,4,7.4,7.5,11.5c1.7,2,2.7,3.7,3.4,6c1.5,4.7,5.2,11.5,8.1,15.2c1.4,1.8,2.5,3.3,2.5,3.5c0,0.4-11.8,6.4-18.4,9.4c-3.2,1.4-11.6,5.1-18.8,8.1c-19.2,8.1-22.1,9.5-26.3,13.5c-11.1,10.5-20.2,31.7-21.1,49.3l-0.3,5.5l4.3,1.7c31.2,11.8,99.7,16.7,157.7,11.2l5.5-0.5l0.1-4.5l0.1-4.5l-27.8-0.1l-27.8-0.1l-2-1.3c-1.3-0.9-2.3-2-3.1-3.7l-1.1-2.4v-17.3V184l1.2-2.4c0.7-1.5,1.9-2.8,3.1-3.6l1.9-1.3l27.8-0.1l27.8-0.1l-0.1-12.9l-0.1-12.9l-6.9-3.1c-7.3-3.3-13.7-6.4-18.6-9.1l-2.9-1.6l1.6-1.7c3.9-4.3,7.5-10.8,9.5-17.2c0.7-2.2,1.6-3.8,2.9-5.1c2.8-3,7-9.4,8.6-13.3c2.4-5.6,2.9-9.1,2.8-15.1c-0.2-6-0.9-8.1-3.2-8.8c-1.3-0.5-1.3-0.5-1.4-4.2c-0.1-11.7-0.8-23.3-1.7-26.3c-5-18.1-18.2-28.1-39.5-30.2C123.1,14.2,121.1,14.2,114.8,14.8z"/><path fill="#000000" d="M188,162.1l-1.4,1.4v11.1v11.1h-28.8c-31.8,0-31.1,0-32.9,2.9c-0.9,1.4-0.9,2.3-0.9,12.8c0,10.5,0,11.4,0.9,12.8c1.8,2.9,1.2,2.9,32.9,2.9h28.8v11c0,10.3,0,11.1,0.9,12.2c1.1,1.4,2.9,1.9,4.3,1.2c2.8-1.5,52.5-35.7,53.3-36.7c0.6-0.8,0.9-1.8,0.9-3.4c0-1.9-0.2-2.5-1.5-3.8c-2.2-2.3-52.4-36.3-53.9-36.6C189.7,160.7,189,161,188,162.1z"/></g></g></g>
</svg>